<svg xmlns="http://www.w3.org/2000/svg">
    <symbol id="city">
        <svg width="16" height="16" viewBox="0 0 16 16" fill="none"
            xmlns="http://www.w3.org/2000/svg">
            <path d="M12.2427 3.75733L8.00003 13L7.00003 8.99997L3.00003 7.99997L12.2427 3.75733Z"
                fill="#4788FF" />
            <path d="M12.2427 3.75733L8.00003 13L7.00003 8.99997L12.2427 3.75733Z" fill="#0A4ECB" />
        </svg>
    </symbol>

    <symbol id="clock">
        <svg width="16" height="16" viewBox="0 0 16 16" fill="none"
            xmlns="http://www.w3.org/2000/svg">
            <circle cx="8" cy="8" r="5.5" stroke="#0A4ECB" />
            <path d="M7.5 2.5H8.5V8.5H7.5L7.5 2.5Z" fill="#0A4ECB" />
            <path d="M11.5 8L11.5 9L7.5 9L7.5 8L11.5 8Z" fill="#0A4ECB" />
        </svg>
    </symbol>

    <symbol id="logo">
    <svg width="260" height="62" viewBox="0 0 260 62" fill="none" xmlns="http://www.w3.org/2000/svg">
<path fill-rule="evenodd" clip-rule="evenodd" d="M0 20.6251V41.3749C0 45.0829 1.97545 48.5077 5.17865 50.3529L23.0145 60.6274C26.1805 62.4512 30.0711 62.4579 33.2433 60.645L51.2627 50.3468C54.4831 48.5064 56.4719 45.0719 56.4719 41.3512V20.6487C56.4719 16.928 54.4831 13.4936 51.2627 11.6532L33.2433 1.35502C30.0711 -0.457926 26.1805 -0.451238 23.0145 1.37259L5.17864 11.6471C1.97545 13.4923 0 16.917 0 20.6251ZM4.4819 41.3749V20.6251C4.4819 18.5292 5.59845 16.5935 7.40896 15.5505L11.4288 13.2349V48.7651L7.40897 46.4494C5.59846 45.4065 4.4819 43.4707 4.4819 41.3749ZM20.3926 53.9288L25.2448 56.7239C27.0343 57.7548 29.2333 57.7585 31.0263 56.7338L47.2145 47.4822H20.1685C18.9309 47.4822 17.9276 46.4748 17.9276 45.2321C17.9276 43.9894 18.9309 42.982 20.1685 42.982H51.7592C51.9104 42.4591 51.99 41.9109 51.99 41.3512V24.5308H20.1685C18.9309 24.5308 17.9276 23.5234 17.9276 22.2807C17.9276 21.038 18.9309 20.0306 20.1685 20.0306H51.9575C51.761 18.1708 50.686 16.5017 49.0457 15.5643L31.0263 5.26616C29.2333 4.24145 27.0343 4.24522 25.2448 5.27608L20.3926 8.0712V18.2305C18.1649 18.2305 16.3589 20.0438 16.3589 22.2807C16.3589 24.5176 18.1649 26.331 20.3926 26.331V41.1819C18.1649 41.1819 16.3589 42.9952 16.3589 45.2321C16.3589 47.469 18.1649 49.2824 20.3926 49.2824V53.9288Z" fill="#0A4ECB"/>
<path d="M76.7886 35.5043C75.0317 35.5043 73.3264 35.2873 71.6729 34.8533C70.0193 34.4193 68.6758 33.8406 67.6423 33.1173L69.6576 28.5913C70.6291 29.2319 71.7556 29.7486 73.0371 30.1413C74.3186 30.5339 75.5794 30.7303 76.8196 30.7303C79.1759 30.7303 80.3541 30.1413 80.3541 28.9633C80.3541 28.3433 80.013 27.8886 79.3309 27.5993C78.6695 27.2893 77.5947 26.9689 76.1065 26.6383C74.4736 26.2869 73.1094 25.9149 72.0139 25.5223C70.9184 25.1089 69.978 24.4579 69.1925 23.5693C68.4071 22.6806 68.0144 21.4819 68.0144 19.9733C68.0144 18.6506 68.3761 17.4623 69.0995 16.4083C69.823 15.3336 70.8978 14.4863 72.324 13.8663C73.7708 13.2463 75.5381 12.9363 77.6257 12.9363C79.0519 12.9363 80.4574 13.1016 81.8423 13.4323C83.2271 13.7423 84.4466 14.2073 85.5007 14.8273L83.6095 19.3843C81.5425 18.2683 79.5376 17.7103 77.5947 17.7103C76.3752 17.7103 75.4864 17.8963 74.9283 18.2683C74.3702 18.6196 74.0912 19.0846 74.0912 19.6633C74.0912 20.2419 74.4219 20.6759 75.0833 20.9653C75.7448 21.2546 76.8092 21.5543 78.2768 21.8643C79.9303 22.2156 81.2945 22.5979 82.3693 23.0113C83.4648 23.4039 84.4053 24.0446 85.1907 24.9333C85.9968 25.8013 86.3999 26.9896 86.3999 28.4983C86.3999 29.8003 86.0381 30.9783 85.3147 32.0323C84.5913 33.0863 83.5061 33.9336 82.0593 34.5743C80.6124 35.1943 78.8555 35.5043 76.7886 35.5043Z" fill="#F04716"/>
<path d="M100.397 13.3703C102.361 13.3703 104.066 13.7009 105.513 14.3623C106.96 15.0029 108.076 15.9329 108.861 17.1523C109.647 18.3509 110.039 19.7666 110.039 21.3993C110.039 23.0319 109.647 24.4476 108.861 25.6463C108.076 26.8449 106.96 27.7749 105.513 28.4363C104.066 29.0769 102.361 29.3973 100.397 29.3973H96.6145V35.0703H90.4757V13.3703H100.397ZM100.025 24.5613C101.286 24.5613 102.237 24.2926 102.877 23.7553C103.518 23.1973 103.839 22.4119 103.839 21.3993C103.839 20.3866 103.518 19.6013 102.877 19.0433C102.237 18.4853 101.286 18.2063 100.025 18.2063H96.6145V24.5613H100.025Z" fill="#F04716"/>
<path d="M125.52 35.5043C123.226 35.5043 121.159 35.0186 119.319 34.0473C117.5 33.0759 116.064 31.7326 115.009 30.0173C113.976 28.3019 113.459 26.3696 113.459 24.2203C113.459 22.0709 113.976 20.1386 115.009 18.4233C116.064 16.7079 117.5 15.3646 119.319 14.3933C121.159 13.4219 123.226 12.9363 125.52 12.9363C127.814 12.9363 129.871 13.4219 131.69 14.3933C133.529 15.3646 134.966 16.7079 135.999 18.4233C137.053 20.1386 137.581 22.0709 137.581 24.2203C137.581 26.3696 137.053 28.3019 135.999 30.0173C134.966 31.7326 133.529 33.0759 131.69 34.0473C129.871 35.0186 127.814 35.5043 125.52 35.5043ZM125.52 30.4203C126.615 30.4203 127.608 30.1619 128.496 29.6453C129.385 29.1286 130.088 28.4053 130.605 27.4753C131.121 26.5246 131.38 25.4396 131.38 24.2203C131.38 23.0009 131.121 21.9263 130.605 20.9963C130.088 20.0456 129.385 19.3119 128.496 18.7953C127.608 18.2786 126.615 18.0203 125.52 18.0203C124.424 18.0203 123.432 18.2786 122.543 18.7953C121.655 19.3119 120.952 20.0456 120.435 20.9963C119.918 21.9263 119.66 23.0009 119.66 24.2203C119.66 25.4396 119.918 26.5246 120.435 27.4753C120.952 28.4053 121.655 29.1286 122.543 29.6453C123.432 30.1619 124.424 30.4203 125.52 30.4203Z" fill="#F04716"/>
<path d="M151.523 29.3043H148.175V35.0703H142.036V13.3703H151.957C153.921 13.3703 155.626 13.7009 157.073 14.3623C158.52 15.0029 159.636 15.9329 160.421 17.1523C161.207 18.3509 161.6 19.7666 161.6 21.3993C161.6 22.9699 161.228 24.3443 160.483 25.5223C159.76 26.6796 158.716 27.5889 157.352 28.2503L162.034 35.0703H155.461L151.523 29.3043ZM155.399 21.3993C155.399 20.3866 155.078 19.6013 154.438 19.0433C153.797 18.4853 152.846 18.2063 151.585 18.2063H148.175V24.5613H151.585C152.846 24.5613 153.797 24.2926 154.438 23.7553C155.078 23.1973 155.399 22.4119 155.399 21.3993Z" fill="#F04716"/>
<path d="M170.543 18.2373H163.877V13.3703H183.317V18.2373H176.682V35.0703H170.543V18.2373Z" fill="#F04716"/>
<path d="M197.486 35.5043C195.192 35.5043 193.125 35.0186 191.285 34.0473C189.466 33.0759 188.03 31.7326 186.976 30.0173C185.942 28.3019 185.425 26.3696 185.425 24.2203C185.425 22.0709 185.942 20.1386 186.976 18.4233C188.03 16.7079 189.466 15.3646 191.285 14.3933C193.125 13.4219 195.192 12.9363 197.486 12.9363C199.78 12.9363 201.837 13.4219 203.656 14.3933C205.495 15.3646 206.932 16.7079 207.965 18.4233C209.019 20.1386 209.547 22.0709 209.547 24.2203C209.547 26.3696 209.019 28.3019 207.965 30.0173C206.932 31.7326 205.495 33.0759 203.656 34.0473C201.837 35.0186 199.78 35.5043 197.486 35.5043ZM197.486 30.4203C198.581 30.4203 199.574 30.1619 200.462 29.6453C201.351 29.1286 202.054 28.4053 202.571 27.4753C203.087 26.5246 203.346 25.4396 203.346 24.2203C203.346 23.0009 203.087 21.9263 202.571 20.9963C202.054 20.0456 201.351 19.3119 200.462 18.7953C199.574 18.2786 198.581 18.0203 197.486 18.0203C196.39 18.0203 195.398 18.2786 194.51 18.7953C193.621 19.3119 192.918 20.0456 192.401 20.9963C191.884 21.9263 191.626 23.0009 191.626 24.2203C191.626 25.4396 191.884 26.5246 192.401 27.4753C192.918 28.4053 193.621 29.1286 194.51 29.6453C195.398 30.1619 196.39 30.4203 197.486 30.4203Z" fill="#F04716"/>
<path d="M235.258 13.3703L225.957 35.0703H219.911L210.641 13.3703H217.276L223.166 27.5063L229.181 13.3703H235.258Z" fill="#F04716"/>
<path d="M251.553 30.8543H242.375L240.67 35.0703H234.407L243.988 13.3703H250.033L259.645 35.0703H253.258L251.553 30.8543ZM249.754 26.3283L246.964 19.3843L244.174 26.3283H249.754Z" fill="#F04716"/>
<path d="M71.6087 49.2873C71.0081 49.2873 70.4652 49.1545 69.9801 48.8889C69.5008 48.6232 69.1225 48.2565 68.8453 47.7888C68.5738 47.3153 68.4381 46.7869 68.4381 46.2037C68.4381 45.6205 68.5738 45.095 68.8453 44.6273C69.1225 44.1538 69.5037 43.7842 69.9888 43.5186C70.4739 43.2529 71.0168 43.1201 71.6174 43.1201C72.0679 43.1201 72.4837 43.1952 72.8649 43.3453C73.246 43.4955 73.5695 43.7149 73.8351 44.0036L73.428 44.4107C72.9544 43.9314 72.3566 43.6918 71.6347 43.6918C71.1554 43.6918 70.7193 43.8015 70.3266 44.0209C69.9339 44.2404 69.6249 44.5406 69.3997 44.9218C69.1802 45.3029 69.0705 45.7302 69.0705 46.2037C69.0705 46.6772 69.1802 47.1045 69.3997 47.4856C69.6249 47.8668 69.9339 48.167 70.3266 48.3865C70.7193 48.6059 71.1554 48.7156 71.6347 48.7156C72.3624 48.7156 72.9602 48.4731 73.428 47.988L73.8351 48.3951C73.5695 48.6839 73.2432 48.9062 72.8562 49.0621C72.475 49.2122 72.0592 49.2873 71.6087 49.2873Z" fill="#0A4ECB"/>
<path d="M83.5534 43.1721V49.2353H82.921V43.7264H79.0833V49.2353H78.4509V43.1721H83.5534Z" fill="#0A4ECB"/>
<path d="M91.551 49.2873C90.9503 49.2873 90.4046 49.1545 89.9137 48.8889C89.4285 48.6175 89.0474 48.2479 88.7702 47.7801C88.4987 47.3124 88.363 46.7869 88.363 46.2037C88.363 45.6205 88.4987 45.095 88.7702 44.6273C89.0474 44.1595 89.4285 43.7928 89.9137 43.5272C90.4046 43.2558 90.9503 43.1201 91.551 43.1201C92.1516 43.1201 92.6916 43.2529 93.1709 43.5186C93.656 43.7842 94.0372 44.1538 94.3144 44.6273C94.5916 45.095 94.7303 45.6205 94.7303 46.2037C94.7303 46.7869 94.5916 47.3153 94.3144 47.7888C94.0372 48.2565 93.656 48.6232 93.1709 48.8889C92.6916 49.1545 92.1516 49.2873 91.551 49.2873ZM91.551 48.7156C92.0303 48.7156 92.4634 48.6088 92.8504 48.3951C93.2373 48.1757 93.5405 47.8754 93.76 47.4943C93.9795 47.1074 94.0892 46.6772 94.0892 46.2037C94.0892 45.7302 93.9795 45.3029 93.76 44.9218C93.5405 44.5349 93.2373 44.2346 92.8504 44.0209C92.4634 43.8015 92.0303 43.6918 91.551 43.6918C91.0716 43.6918 90.6356 43.8015 90.2429 44.0209C89.8559 44.2346 89.5498 44.5349 89.3246 44.9218C89.1051 45.3029 88.9954 45.7302 88.9954 46.2037C88.9954 46.6772 89.1051 47.1074 89.3246 47.4943C89.5498 47.8754 89.8559 48.1757 90.2429 48.3951C90.6356 48.6088 91.0716 48.7156 91.551 48.7156Z" fill="#0A4ECB"/>
<path d="M101.822 43.1721C102.595 43.1721 103.202 43.3569 103.641 43.7264C104.08 44.096 104.299 44.6042 104.299 45.2509C104.299 45.8977 104.08 46.4058 103.641 46.7754C103.202 47.1392 102.595 47.3211 101.822 47.3211H100.193V49.2353H99.5519V43.1721H101.822ZM101.804 46.7581C102.405 46.7581 102.864 46.6281 103.182 46.3683C103.499 46.1027 103.658 45.7302 103.658 45.2509C103.658 44.7601 103.499 44.3847 103.182 44.1249C102.864 43.8593 102.405 43.7264 101.804 43.7264H100.193V46.7581H101.804Z" fill="#0A4ECB"/>
<path d="M112.674 43.7264H110.543V49.2353H109.911V43.7264H107.78V43.1721H112.674V43.7264Z" fill="#0A4ECB"/>
<path d="M117.091 43.1721H117.724V48.1959L121.605 43.1721H122.185V49.2353H121.553V44.2202L117.672 49.2353H117.091V43.1721Z" fill="#0A4ECB"/>
<path d="M131.118 46.1084C131.54 46.195 131.861 46.3654 132.08 46.6195C132.3 46.8678 132.409 47.194 132.409 47.5982C132.409 48.1237 132.222 48.5279 131.846 48.8109C131.477 49.0938 130.931 49.2353 130.209 49.2353H127.523V43.1721H130.044C130.691 43.1721 131.196 43.3049 131.56 43.5705C131.924 43.8362 132.106 44.2202 132.106 44.7225C132.106 45.0632 132.019 45.352 131.846 45.5887C131.673 45.8197 131.43 45.9929 131.118 46.1084ZM128.156 45.9179H130.01C130.477 45.9179 130.836 45.8226 131.084 45.632C131.338 45.4415 131.465 45.1643 131.465 44.8005C131.465 44.4367 131.338 44.1595 131.084 43.969C130.836 43.7784 130.477 43.6831 130.01 43.6831H128.156V45.9179ZM130.209 48.7243C131.254 48.7243 131.777 48.3345 131.777 47.5549C131.777 46.7927 131.254 46.4116 130.209 46.4116H128.156V48.7243H130.209Z" fill="#0A4ECB"/>
<path d="M142.372 43.1721V49.2353H141.739V46.4376H137.945V49.2353H137.304V43.1721H137.945V45.8746H141.739V43.1721H142.372Z" fill="#0A4ECB"/>
<path d="M150.249 45.3375C150.965 45.3375 151.511 45.4992 151.886 45.8226C152.267 46.146 152.458 46.6195 152.458 47.2431C152.458 47.8956 152.256 48.3922 151.852 48.7329C151.453 49.0679 150.876 49.2353 150.119 49.2353H147.711V43.1721H148.343V45.3375H150.249ZM150.102 48.7243C150.662 48.7243 151.086 48.6001 151.375 48.3518C151.67 48.1035 151.817 47.7368 151.817 47.2518C151.817 46.3221 151.245 45.8572 150.102 45.8572H148.343V48.7243H150.102ZM153.506 43.1721H154.139V49.2353H153.506V43.1721Z" fill="#0A4ECB"/>
<path d="M163.759 48.681V49.2353H159.471V43.1721H163.629V43.7264H160.112V45.8832H163.248V46.4289H160.112V48.681H163.759Z" fill="#0A4ECB"/>
<path d="M176.042 46.4549H174.656V49.2353H174.033V43.1721H174.656V45.8919H176.042L178.095 43.1721H178.788L176.536 46.1171L178.918 49.2353H178.182L176.042 46.4549Z" fill="#0A4ECB"/>
<path d="M185.847 49.2873C185.246 49.2873 184.7 49.1545 184.209 48.8889C183.724 48.6175 183.343 48.2479 183.066 47.7801C182.794 47.3124 182.659 46.7869 182.659 46.2037C182.659 45.6205 182.794 45.095 183.066 44.6273C183.343 44.1595 183.724 43.7928 184.209 43.5272C184.7 43.2558 185.246 43.1201 185.847 43.1201C186.447 43.1201 186.987 43.2529 187.467 43.5186C187.952 43.7842 188.333 44.1538 188.61 44.6273C188.887 45.095 189.026 45.6205 189.026 46.2037C189.026 46.7869 188.887 47.3153 188.61 47.7888C188.333 48.2565 187.952 48.6232 187.467 48.8889C186.987 49.1545 186.447 49.2873 185.847 49.2873ZM185.847 48.7156C186.326 48.7156 186.759 48.6088 187.146 48.3951C187.533 48.1757 187.836 47.8754 188.056 47.4943C188.275 47.1074 188.385 46.6772 188.385 46.2037C188.385 45.7302 188.275 45.3029 188.056 44.9218C187.836 44.5349 187.533 44.2346 187.146 44.0209C186.759 43.8015 186.326 43.6918 185.847 43.6918C185.367 43.6918 184.931 43.8015 184.539 44.0209C184.152 44.2346 183.846 44.5349 183.62 44.9218C183.401 45.3029 183.291 45.7302 183.291 46.2037C183.291 46.6772 183.401 47.1074 183.62 47.4943C183.846 47.8754 184.152 48.1757 184.539 48.3951C184.931 48.6088 185.367 48.7156 185.847 48.7156Z" fill="#0A4ECB"/>
<path d="M200.146 43.1721V49.2353H199.531V44.3847L197.148 48.4644H196.845L194.463 44.4107V49.2353H193.848V43.1721H194.376L197.01 47.6675L199.617 43.1721H200.146Z" fill="#0A4ECB"/>
<path d="M210.583 43.1721V49.2353H209.951V43.7264H206.113V49.2353H205.481V43.1721H210.583Z" fill="#0A4ECB"/>
<path d="M220.584 43.1721V49.2353H219.952V43.7264H217.024L216.955 45.7533C216.926 46.5906 216.856 47.2662 216.747 47.7801C216.643 48.2883 216.481 48.6694 216.262 48.9235C216.042 49.1718 215.751 49.296 215.387 49.296C215.231 49.296 215.069 49.2757 214.902 49.2353L214.954 48.6636C215.052 48.6867 215.147 48.6983 215.239 48.6983C215.493 48.6983 215.699 48.5972 215.854 48.3951C216.016 48.193 216.137 47.8812 216.218 47.4597C216.299 47.0323 216.354 46.4693 216.383 45.7706L216.47 43.1721H220.584Z" fill="#0A4ECB"/>
<path d="M230.21 48.681V49.2353H225.922V43.1721H230.08V43.7264H226.563V45.8832H229.699V46.4289H226.563V48.681H230.21Z" fill="#0A4ECB"/>
<path d="M236.934 46.4549H235.548V49.2353H234.924V43.1721H235.548V45.8919H236.934L238.987 43.1721H239.68L237.428 46.1171L239.81 49.2353H239.074L236.934 46.4549Z" fill="#0A4ECB"/>
<path d="M246.73 49.2873C246.129 49.2873 245.586 49.1545 245.101 48.8889C244.622 48.6232 244.244 48.2565 243.966 47.7888C243.695 47.3153 243.559 46.7869 243.559 46.2037C243.559 45.6205 243.695 45.095 243.966 44.6273C244.244 44.1538 244.625 43.7842 245.11 43.5186C245.595 43.2529 246.138 43.1201 246.739 43.1201C247.189 43.1201 247.605 43.1952 247.986 43.3453C248.367 43.4955 248.691 43.7149 248.956 44.0036L248.549 44.4107C248.076 43.9314 247.478 43.6918 246.756 43.6918C246.277 43.6918 245.841 43.8015 245.448 44.0209C245.055 44.2404 244.746 44.5406 244.521 44.9218C244.301 45.3029 244.192 45.7302 244.192 46.2037C244.192 46.6772 244.301 47.1045 244.521 47.4856C244.746 47.8668 245.055 48.167 245.448 48.3865C245.841 48.6059 246.277 48.7156 246.756 48.7156C247.484 48.7156 248.081 48.4731 248.549 47.988L248.956 48.3951C248.691 48.6839 248.364 48.9062 247.977 49.0621C247.596 49.2122 247.18 49.2873 246.73 49.2873Z" fill="#0A4ECB"/>
<path d="M256.11 45.3375C256.826 45.3375 257.372 45.4992 257.748 45.8226C258.129 46.146 258.319 46.6195 258.319 47.2431C258.319 47.8956 258.117 48.3922 257.713 48.7329C257.315 49.0679 256.737 49.2353 255.98 49.2353H253.572V43.1721H254.205V45.3375H256.11ZM255.963 48.7243C256.523 48.7243 256.948 48.6001 257.237 48.3518C257.531 48.1035 257.678 47.7368 257.678 47.2518C257.678 46.3221 257.107 45.8572 255.963 45.8572H254.205V48.7243H255.963ZM259.368 43.1721H260V49.2353H259.368V43.1721Z" fill="#0A4ECB"/>
</svg>

</symbol>

<symbol class="search">
<svg width="19" height="19" viewBox="0 0 19 19" fill="none" xmlns="http://www.w3.org/2000/svg">
<circle cx="8" cy="8" r="7.5" stroke="#0A4ECB"/>
<path d="M13.5 13.5L18.5 18.5" stroke="#0A4ECB" stroke-linecap="round" stroke-linejoin="round"/>
</svg>

</symbol>
</svg>